# xmcd
#
# Track frame offsets:
#	150
#	14731
#	31070
#	45697
#	60086
#	78461
#	97297
#	114948
#	131580
#	146587
#	164047
#	179495
#	195006
#	210682
#	232768
#
# Disc length: 3337 seconds
#
# Revision: 1
# Processed by: cddbd v1.5.1PL0 Copyright (c) Steve Scherf et al.
# Submitted via: audiograbber 1.83.01
#
DISCID=c50d070f
DTITLE=Various Artist - Hot Country Hits Collection Vol. 1 - CB60001
DYEAR=1997
DGENRE=Karaoke
TTITLE0=Lawrence, Tracy - Time Marches On
TTITLE1=Loveless, Patty - You Can Feel Bad
TTITLE2=Ricochet - Daddy's Money
TTITLE3=Clark, Terri - When Boy Meets Girl
TTITLE4=Raye, Collin - Not That Different
TTITLE5=Twain, Shania - You Win My Love
TTITLE6=Diffie, Joe - Bigger Than The Beatles
TTITLE7=McBride, Martina - Wild Angels
TTITLE8=Hayes, Wade - On A Good Night
TTITLE9=White, Bryan - I'm Not Supposed To Love You Anymore
TTITLE10=Montgomery, John Michael - Cowboy Love
TTITLE11=Hill, Faith - It Matters To Me
TTITLE12=McCoy, Neal - Then You Can Tell Me Goodbye
TTITLE13=Judd, Wynonna - Heaven Help My Heart
TTITLE14=McGraw, Tim - Can't Be Really Gone
EXTD=
EXTT0=
EXTT1=
EXTT2=
EXTT3=
EXTT4=
EXTT5=
EXTT6=
EXTT7=
EXTT8=
EXTT9=
EXTT10=
EXTT11=
EXTT12=
EXTT13=
EXTT14=
PLAYORDER=
